<svg width="2573" height="1306" xmlns="http://www.w3.org/2000/svg" xmlns:xlink="http://www.w3.org/1999/xlink" xml:space="preserve" overflow="hidden"><g transform="translate(-443 -585)"><path d="M2285.5 772.5 2091 1161.5 1896.5 772.5Z" stroke="#156082" stroke-width="20.625" stroke-miterlimit="8" fill="none" fill-rule="evenodd"/><path d="M2791.04 1098.02 2452.7 1314.67 2310.94 1180.94 2507.53 830.558Z" stroke="#156082" stroke-width="20.625" stroke-miterlimit="8" stroke-opacity="0.101961" fill="none" fill-rule="evenodd"/><path d="M2652.68 1659.43 2506.91 1425.53 2740.8 1279.76 2886.58 1513.66Z" stroke="#00B0F0" stroke-width="20.625" stroke-miterlimit="8" stroke-opacity="0.101961" fill="none" fill-rule="evenodd"/><path d="M2221 1314.5 2222 1314.5 2416.5 1509 2416.5 1703.5 2416.5 1703.5 2026.5 1703.5 2026.5 1703.5 2026.5 1509Z" stroke="#C00000" stroke-width="20.625" stroke-miterlimit="8" stroke-opacity="0.101961" fill="none" fill-rule="evenodd"/><path d="M1561.82 1143.96 1699.64 779.375 1926.41 1281.78Z" stroke="#8ED973" stroke-width="20.625" stroke-miterlimit="8" stroke-opacity="0.101961" fill="none" fill-rule="evenodd"/><path d="M1701.22 1703.49 1566.48 1289.08 1978.86 1429.94Z" stroke="#8ED973" stroke-width="20.625" stroke-miterlimit="8" stroke-opacity="0.101961" fill="none" fill-rule="evenodd"/><rect x="1388.5" y="588.5" width="1624" height="1299" stroke="#042433" stroke-width="6.875" stroke-miterlimit="8" fill="none"/><path d="M460.5 1432.5 655.5 1043.5 850.5 1432.5Z" stroke="#156082" stroke-width="20.625" stroke-miterlimit="8" fill="none" fill-rule="evenodd"/></g></svg>