<svg width="2603" height="1229" xmlns="http://www.w3.org/2000/svg" xmlns:xlink="http://www.w3.org/1999/xlink" xml:space="preserve" overflow="hidden"><g transform="translate(-247 -688)"><g><g><g><path d="M1600.02 962.312C1599.13 962.314 1598.27 961.969 1597.64 961.35 1583.57 948.145 1571.31 933.131 1561.2 916.7 1551.63 900.506 1546.72 881.988 1547 863.182 1547.17 861.291 1548.84 859.897 1550.73 860.069 1552.56 860.235 1553.93 861.806 1553.85 863.639 1553.75 881.075 1558.35 898.217 1567.16 913.266 1576.95 929.141 1588.8 943.648 1602.4 956.41 1603.77 957.734 1603.8 959.91 1602.47 961.271 1601.83 961.934 1600.94 962.31 1600.02 962.312Z" stroke="#156082" stroke-width="3.4375" fill="#156082"/><path d="M1582.66 979.001C1581.76 979.008 1580.89 978.659 1580.25 978.032 1564.85 963.436 1551.45 946.876 1540.37 928.779 1528.42 908.447 1522.4 885.173 1522.99 861.594 1524 846.439 1537.1 834.973 1552.26 835.982 1567.31 836.986 1578.75 849.939 1577.88 865.007 1578.06 877.739 1581.54 890.207 1587.97 901.197 1595.75 914.624 1617.07 937.095 1617.28 937.291 1618.62 938.63 1618.63 940.807 1617.29 942.153 1615.95 943.499 1613.77 943.504 1612.43 942.165 1612.23 941.969 1590.31 918.931 1582.02 904.631 1574.96 892.487 1571.17 878.72 1571.02 864.674 1571.75 853.305 1563.13 843.5 1551.76 842.772 1540.39 842.043 1530.58 850.669 1529.86 862.037 1529.34 884.258 1535.05 906.18 1546.36 925.318 1557.11 942.873 1570.13 958.938 1585.07 973.099 1586.43 974.423 1586.46 976.599 1585.14 977.96 1584.49 978.628 1583.59 979.004 1582.66 979.001Z" stroke="#156082" stroke-width="3.4375" fill="#156082"/><path d="M1513.08 994.659C1511.18 994.659 1509.64 993.12 1509.64 991.221 1509.64 990.909 1509.68 990.598 1509.77 990.297 1513.89 975.481 1523.95 965.908 1535.39 965.908 1546.65 965.908 1556.64 975.275 1560.86 989.775 1561.39 991.598 1560.34 993.506 1558.52 994.035 1556.7 994.565 1554.79 993.516 1554.26 991.693 1550.92 980.204 1543.51 972.786 1535.39 972.786 1527.26 972.786 1519.61 980.565 1516.39 992.146 1515.97 993.632 1514.62 994.659 1513.08 994.659Z" stroke="#156082" stroke-width="3.4375" fill="#156082"/><path d="M1487.6 980.73C1485.7 980.73 1484.16 979.19 1484.16 977.292 1484.16 976.304 1484.58 975.364 1485.33 974.711 1494.89 966.303 1515.99 943.303 1505.34 911.351 1499.89 895.007 1497.71 877.748 1498.94 860.562L1498.98 859.988C1500.86 831.59 1525.41 810.094 1553.8 811.975 1553.83 811.977 1553.86 811.978 1553.88 811.98 1581.84 813.989 1603.13 837.869 1601.93 865.873 1601.84 867.772 1600.22 869.234 1598.32 869.139 1596.43 869.044 1594.96 867.428 1595.06 865.53 1596.24 840.877 1577.21 819.937 1552.56 818.758 1541 818.205 1529.68 822.156 1520.98 829.779 1512.04 837.566 1506.59 848.599 1505.83 860.425L1505.79 861.02C1504.63 877.304 1506.69 893.658 1511.86 909.145 1523.81 945.005 1500.45 970.531 1489.86 979.844 1489.24 980.405 1488.43 980.72 1487.6 980.73ZM1626.16 920.375C1625.22 920.377 1624.32 919.99 1623.68 919.306 1615.72 911.224 1608.73 902.25 1602.84 892.562 1601.94 890.89 1602.56 888.805 1604.24 887.906 1605.84 887.044 1607.83 887.578 1608.79 889.125 1614.41 898.344 1621.08 906.885 1628.65 914.579 1629.96 915.955 1629.91 918.131 1628.53 919.439 1627.89 920.046 1627.05 920.384 1626.16 920.385Z" stroke="#156082" stroke-width="3.4375" fill="#156082"/><path d="M1463.15 957.844C1461.25 957.842 1459.71 956.302 1459.71 954.404 1459.71 953.37 1460.18 952.391 1460.98 951.739 1469.29 944.998 1482.73 930.426 1479.46 908.519 1479.08 906.014 1478.69 903.513 1478.29 901.015 1475.58 887.133 1474.45 872.987 1474.94 858.85L1474.97 858.355C1476.26 838.353 1485.49 819.695 1500.6 806.525 1517.01 793.224 1537.83 786.596 1558.92 787.962 1597.35 790.523 1628.93 822.021 1629.3 858.17 1629.4 868.341 1632.23 875.825 1637.69 880.407 1639.14 881.628 1639.33 883.796 1638.11 885.25 1636.89 886.704 1634.72 886.894 1633.27 885.673 1626.2 879.74 1622.55 870.51 1622.42 858.239 1622.08 825.582 1593.39 797.151 1558.46 794.82 1539.19 793.544 1520.15 799.566 1505.13 811.688 1491.39 823.661 1483 840.627 1481.83 858.813L1481.8 859.318C1481.34 872.943 1482.44 886.576 1485.09 899.949 1485.48 902.465 1485.88 904.982 1486.25 907.512 1490.04 932.791 1474.76 949.422 1465.31 957.084 1464.7 957.58 1463.93 957.848 1463.15 957.844Z" stroke="#156082" stroke-width="3.4375" fill="#156082"/><path d="M1630.54 812.035C1629.41 812.036 1628.36 811.485 1627.71 810.56 1611.21 787.283 1585.1 772.684 1556.63 770.82 1533.1 769.205 1509.83 776.646 1491.61 791.62 1490.1 792.769 1487.94 792.476 1486.79 790.965 1485.7 789.534 1485.9 787.505 1487.24 786.312 1506.82 770.22 1531.81 762.226 1557.09 763.969 1587.64 765.979 1615.66 781.654 1633.36 806.638 1634.44 808.198 1634.06 810.34 1632.5 811.422 1631.92 811.821 1631.24 812.035 1630.54 812.035Z" stroke="#156082" stroke-width="3.4375" fill="#156082"/><path d="M1440.09 934.582C1438.19 934.583 1436.65 933.045 1436.65 931.146 1436.65 929.872 1437.35 928.701 1438.48 928.106 1441.68 926.404 1444.62 924.237 1447.19 921.674 1449.99 918.752 1452.09 915.224 1453.31 911.362 1454.05 908.327 1454.31 905.195 1454.07 902.08 1451.28 887.291 1450.23 872.224 1450.95 857.19L1450.97 856.826C1451.68 846.095 1454.11 835.547 1458.17 825.589 1461.55 817.333 1466.03 809.573 1471.49 802.52 1472.66 801.019 1474.82 800.745 1476.32 801.908 1477.82 803.071 1478.09 805.23 1476.93 806.731 1471.85 813.291 1467.68 820.511 1464.53 828.191 1460.75 837.457 1458.49 847.271 1457.83 857.255L1457.81 857.63C1457.13 872.154 1458.16 886.708 1460.86 900.994 1461.27 905.144 1460.94 909.334 1459.89 913.369 1458.4 918.163 1455.83 922.551 1452.38 926.201 1449.25 929.401 1445.64 932.095 1441.69 934.187 1441.19 934.447 1440.64 934.582 1440.09 934.582Z" stroke="#156082" stroke-width="3.4375" fill="#156082"/><path d="M1437.87 824.242C1437.46 824.241 1437.05 824.166 1436.66 824.022 1434.88 823.353 1433.98 821.371 1434.65 819.594 1435.05 818.547 1435.45 817.505 1435.88 816.469 1456.12 767.219 1505.57 736.413 1558.7 739.954 1573.86 740.941 1588.72 744.668 1602.56 750.954 1604.29 751.744 1605.05 753.784 1604.26 755.51 1603.47 757.23 1601.44 757.991 1599.72 757.214 1586.64 751.264 1572.58 747.734 1558.24 746.795 1508.06 743.45 1461.36 772.541 1442.24 819.051 1441.84 820.031 1441.46 821.01 1441.09 821.997 1440.59 823.344 1439.3 824.239 1437.87 824.242Z" stroke="#156082" stroke-width="3.4375" fill="#156082"/><path d="M1471.49 745.935C1469.6 745.936 1468.06 744.398 1468.06 742.499 1468.06 741.341 1468.64 740.26 1469.61 739.624 1496.42 721.989 1528.29 713.667 1560.31 715.943 1562.2 716.072 1563.63 717.711 1563.51 719.604 1563.4 721.477 1561.8 722.912 1559.93 722.81 1559.9 722.808 1559.88 722.807 1559.85 722.805 1529.33 720.629 1498.94 728.56 1473.38 745.375 1472.82 745.741 1472.16 745.936 1471.49 745.935Z" stroke="#156082" stroke-width="3.4375" fill="#156082"/></g></g></g><path d="M254 1650C254 1492.32 275.303 1364.5 301.581 1364.5L1500.92 1364.5C1527.2 1364.5 1548.5 1236.68 1548.5 1079 1548.5 1236.68 1569.8 1364.5 1596.08 1364.5L2795.42 1364.5C2821.7 1364.5 2843 1492.32 2843 1650" stroke="#156082" stroke-width="13.75" stroke-miterlimit="8" fill="none" fill-rule="evenodd"/><g><g><g><path d="M559.875 1804.75 762.688 1804.75C764.75 1804.75 766.125 1803.37 766.125 1801.31 766.125 1800.62 766.125 1800.28 765.781 1799.59L717.656 1717.09C716.969 1716.06 715.938 1715.37 714.563 1715.37L714.563 1715.37C713.188 1715.37 712.156 1716.06 711.469 1717.09L689.813 1757.31 638.25 1678.94C637.906 1678.25 636.531 1677.56 635.5 1677.56L635.5 1677.56C634.469 1677.56 633.094 1678.25 632.75 1679.28L591.844 1743.91C591.5 1744.25 591.156 1744.94 590.813 1745.28L556.781 1799.59C555.75 1801.31 556.094 1803.37 557.813 1804.41 558.5 1804.41 559.188 1804.75 559.875 1804.75ZM714.563 1726.03 756.844 1797.87 716.281 1797.87 693.938 1763.84 714.563 1726.03C714.563 1726.03 714.563 1726.03 714.563 1726.03 714.563 1726.03 714.563 1726.03 714.563 1726.03ZM670.219 1740.12 649.25 1727.75C647.875 1727.06 646.156 1727.06 645.125 1728.44L635.5 1738.06 627.594 1730.16C626.563 1729.12 625.188 1728.78 623.813 1729.47L603.531 1738.41 635.5 1687.53C635.5 1687.53 635.5 1687.53 635.5 1687.53L670.219 1740.12ZM597 1749.06 624.5 1736.69 633.094 1745.28C634.469 1746.66 636.531 1746.66 637.906 1745.28L648.219 1734.97 678.469 1752.5C678.469 1752.5 678.469 1752.5 678.469 1752.5L708.031 1797.87 566.063 1797.87 597 1749.06Z" stroke="#156082" stroke-width="3.4375" fill="#156082"/><path d="M590.813 1691.31C596.656 1691.31 601.125 1686.84 601.125 1681 601.125 1675.16 596.656 1670.69 590.813 1670.69 584.969 1670.69 580.5 1675.16 580.5 1681 580.5 1686.84 584.969 1691.31 590.813 1691.31ZM590.813 1677.56C592.875 1677.56 594.25 1678.94 594.25 1681 594.25 1683.06 592.875 1684.44 590.813 1684.44 588.75 1684.44 587.375 1683.06 587.375 1681 587.375 1678.94 588.75 1677.56 590.813 1677.56Z" stroke="#156082" stroke-width="3.4375" fill="#156082"/><path d="M793.625 1639.75 532.375 1639.75 532.375 1839.12 793.625 1839.12 793.625 1639.75ZM786.75 1832.25 539.25 1832.25 539.25 1646.62 786.75 1646.62 786.75 1832.25Z" stroke="#156082" stroke-width="3.4375" fill="#156082"/></g></g></g><g><g><g><path d="M1444.25 1841.38 1647.06 1841.38C1649.12 1841.38 1650.5 1840 1650.5 1837.94 1650.5 1837.25 1650.5 1836.91 1650.16 1836.22L1602.03 1753.72C1601.34 1752.69 1600.31 1752 1598.94 1752L1598.94 1752C1597.56 1752 1596.53 1752.69 1595.84 1753.72L1574.19 1793.94 1522.62 1715.56C1522.28 1714.88 1520.91 1714.19 1519.87 1714.19L1519.87 1714.19C1518.84 1714.19 1517.47 1714.88 1517.12 1715.91L1476.22 1780.53C1475.87 1780.88 1475.53 1781.56 1475.19 1781.91L1441.16 1836.22C1440.12 1837.94 1440.47 1840 1442.19 1841.03 1442.87 1841.03 1443.56 1841.38 1444.25 1841.38ZM1598.94 1762.66 1641.22 1834.5 1600.66 1834.5 1578.31 1800.47 1598.94 1762.66C1598.94 1762.66 1598.94 1762.66 1598.94 1762.66 1598.94 1762.66 1598.94 1762.66 1598.94 1762.66ZM1554.59 1776.75 1533.62 1764.38C1532.25 1763.69 1530.53 1763.69 1529.5 1765.06L1519.87 1774.69 1511.97 1766.78C1510.94 1765.75 1509.56 1765.41 1508.19 1766.09L1487.91 1775.03 1519.87 1724.16C1519.87 1724.16 1519.87 1724.16 1519.87 1724.16 1519.87 1724.16 1554.59 1776.75 1554.59 1776.75ZM1481.37 1785.69 1508.87 1773.31 1517.47 1781.91C1518.84 1783.28 1520.91 1783.28 1522.28 1781.91L1532.59 1771.59 1562.84 1789.13C1562.84 1789.13 1562.84 1789.13 1562.84 1789.13L1592.41 1834.5 1450.44 1834.5 1481.37 1785.69Z" stroke="#156082" stroke-width="3.4375" fill="#156082"/><path d="M1475.19 1727.94C1481.03 1727.94 1485.5 1723.47 1485.5 1717.63 1485.5 1711.78 1481.03 1707.31 1475.19 1707.31 1469.34 1707.31 1464.87 1711.78 1464.87 1717.63 1464.87 1723.47 1469.34 1727.94 1475.19 1727.94ZM1475.19 1714.19C1477.25 1714.19 1478.62 1715.56 1478.62 1717.63 1478.62 1719.69 1477.25 1721.06 1475.19 1721.06 1473.12 1721.06 1471.75 1719.69 1471.75 1717.63 1471.75 1715.56 1473.12 1714.19 1475.19 1714.19Z" stroke="#156082" stroke-width="3.4375" fill="#156082"/><path d="M1454.56 1638.56 1454.56 1676.38 1416.75 1676.38 1416.75 1875.75 1678 1875.75 1678 1837.94 1715.81 1837.94 1715.81 1638.56 1454.56 1638.56ZM1671.12 1868.88 1423.62 1868.88 1423.62 1683.25 1671.12 1683.25 1671.12 1868.88ZM1708.94 1831.06 1678 1831.06 1678 1676.38 1461.44 1676.38 1461.44 1645.44 1708.94 1645.44 1708.94 1831.06Z" stroke="#156082" stroke-width="3.4375" fill="#156082"/></g></g></g><g><g><g><path d="M2260.25 1841.38 2463.06 1841.38C2465.12 1841.38 2466.5 1840 2466.5 1837.94 2466.5 1837.25 2466.5 1836.91 2466.16 1836.22L2418.03 1753.72C2417.34 1752.69 2416.31 1752 2414.94 1752L2414.94 1752C2413.56 1752 2412.53 1752.69 2411.84 1753.72L2390.19 1793.94 2338.62 1715.56C2338.28 1714.88 2336.91 1714.19 2335.88 1714.19L2335.88 1714.19C2334.84 1714.19 2333.47 1714.88 2333.12 1715.91L2292.22 1780.53C2291.88 1780.88 2291.53 1781.56 2291.19 1781.91L2257.16 1836.22C2256.12 1837.94 2256.47 1840 2258.19 1841.03 2258.88 1841.03 2259.56 1841.38 2260.25 1841.38ZM2414.94 1762.66 2457.22 1834.5 2416.66 1834.5 2394.31 1800.47 2414.94 1762.66C2414.94 1762.66 2414.94 1762.66 2414.94 1762.66 2414.94 1762.66 2414.94 1762.66 2414.94 1762.66ZM2370.59 1776.75 2349.62 1764.38C2348.25 1763.69 2346.53 1763.69 2345.5 1765.06L2335.88 1774.69 2327.97 1766.78C2326.94 1765.75 2325.56 1765.41 2324.19 1766.09L2303.91 1775.03 2335.88 1724.16C2335.88 1724.16 2335.88 1724.16 2335.88 1724.16 2335.88 1724.16 2370.59 1776.75 2370.59 1776.75ZM2297.38 1785.69 2324.88 1773.31 2333.47 1781.91C2334.84 1783.28 2336.91 1783.28 2338.28 1781.91L2348.59 1771.59 2378.84 1789.13C2378.84 1789.13 2378.84 1789.13 2378.84 1789.13L2408.41 1834.5 2266.44 1834.5 2297.38 1785.69Z" stroke="#156082" stroke-width="3.4375" fill="#156082"/><path d="M2291.19 1727.94C2297.03 1727.94 2301.5 1723.47 2301.5 1717.63 2301.5 1711.78 2297.03 1707.31 2291.19 1707.31 2285.34 1707.31 2280.88 1711.78 2280.88 1717.63 2280.88 1723.47 2285.34 1727.94 2291.19 1727.94ZM2291.19 1714.19C2293.25 1714.19 2294.62 1715.56 2294.62 1717.63 2294.62 1719.69 2293.25 1721.06 2291.19 1721.06 2289.12 1721.06 2287.75 1719.69 2287.75 1717.63 2287.75 1715.56 2289.12 1714.19 2291.19 1714.19Z" stroke="#156082" stroke-width="3.4375" fill="#156082"/><path d="M2270.56 1638.56 2270.56 1676.38 2232.75 1676.38 2232.75 1875.75 2494 1875.75 2494 1837.94 2531.81 1837.94 2531.81 1638.56 2270.56 1638.56ZM2487.12 1868.88 2239.62 1868.88 2239.62 1683.25 2487.12 1683.25 2487.12 1868.88ZM2524.94 1831.06 2494 1831.06 2494 1676.38 2277.44 1676.38 2277.44 1645.44 2524.94 1645.44 2524.94 1831.06Z" stroke="#156082" stroke-width="3.4375" fill="#156082"/></g></g></g><text fill="#156082" font-family="Aptos,Aptos_MSFontService,sans-serif" font-weight="400" font-size="83" transform="matrix(1 0 0 1 490.514 1557)">Occasion 1</text><text fill="#156082" font-family="Aptos,Aptos_MSFontService,sans-serif" font-weight="400" font-size="83" transform="matrix(1 0 0 1 1347.74 1546)">Occasion 2</text><text fill="#156082" font-family="Aptos,Aptos_MSFontService,sans-serif" font-weight="400" font-size="83" transform="matrix(1 0 0 1 2204.97 1546)">Occasion 3</text></g></svg>