<svg width="2603" height="1229" xmlns="http://www.w3.org/2000/svg" xmlns:xlink="http://www.w3.org/1999/xlink" xml:space="preserve" overflow="hidden"><g transform="translate(-907 -189)"><g><g><g><path d="M2260.02 463.313C2259.13 463.314 2258.27 462.969 2257.64 462.35 2243.57 449.146 2231.31 434.131 2221.2 417.7 2211.63 401.507 2206.72 382.988 2207 364.182 2207.17 362.291 2208.84 360.897 2210.73 361.069 2212.56 361.235 2213.93 362.806 2213.85 364.639 2213.75 382.076 2218.35 399.217 2227.16 414.266 2236.95 430.141 2248.8 444.648 2262.4 457.41 2263.77 458.734 2263.8 460.91 2262.47 462.271 2261.83 462.934 2260.94 463.31 2260.02 463.313Z"/><path d="M2242.66 480.002C2241.76 480.008 2240.89 479.66 2240.25 479.032 2224.85 464.436 2211.45 447.876 2200.37 429.78 2188.42 409.447 2182.4 386.173 2182.99 362.594 2184 347.44 2197.1 335.973 2212.26 336.982 2227.31 337.986 2238.75 350.939 2237.88 366.007 2238.06 378.739 2241.54 391.208 2247.97 402.197 2255.75 415.624 2277.07 438.095 2277.28 438.291 2278.62 439.63 2278.63 441.807 2277.29 443.153 2275.95 444.499 2273.77 444.505 2272.43 443.165 2272.23 442.969 2250.31 419.931 2242.02 405.631 2234.96 393.487 2231.17 379.72 2231.02 365.674 2231.75 354.306 2223.13 344.5 2211.76 343.772 2200.39 343.044 2190.58 351.669 2189.86 363.037 2189.34 385.258 2195.05 407.18 2206.36 426.318 2217.11 443.873 2230.13 459.938 2245.07 474.099 2246.43 475.423 2246.46 477.599 2245.14 478.96 2244.49 479.629 2243.59 480.004 2242.66 480.002Z"/><path d="M2173.08 495.659C2171.18 495.659 2169.64 494.12 2169.64 492.222 2169.64 491.909 2169.68 491.598 2169.77 491.297 2173.89 476.482 2183.95 466.908 2195.39 466.908 2206.65 466.908 2216.64 476.275 2220.86 490.775 2221.39 492.598 2220.34 494.506 2218.52 495.036 2216.7 495.565 2214.79 494.516 2214.26 492.693 2210.92 481.205 2203.51 473.787 2195.39 473.787 2187.26 473.787 2179.61 481.566 2176.39 493.147 2175.97 494.632 2174.62 495.659 2173.08 495.659Z"/><path d="M2147.6 481.731C2145.7 481.73 2144.16 480.191 2144.16 478.292 2144.16 477.304 2144.58 476.364 2145.33 475.712 2154.89 467.303 2175.99 444.303 2165.34 412.352 2159.89 396.008 2157.71 378.749 2158.94 361.563L2158.98 360.988C2160.86 332.591 2185.41 311.094 2213.8 312.975 2213.83 312.977 2213.86 312.979 2213.88 312.98 2241.84 314.989 2263.13 338.869 2261.93 366.873 2261.84 368.772 2260.22 370.234 2258.32 370.139 2256.43 370.044 2254.96 368.428 2255.06 366.53 2256.24 341.878 2237.21 320.938 2212.56 319.758 2201 319.205 2189.68 323.156 2180.98 330.78 2172.04 338.566 2166.59 349.599 2165.83 361.425L2165.79 362.02C2164.63 378.304 2166.69 394.658 2171.86 410.145 2183.81 446.005 2160.46 471.532 2149.86 480.844 2149.24 481.405 2148.43 481.72 2147.6 481.731ZM2286.16 421.375C2285.22 421.377 2284.32 420.99 2283.68 420.306 2275.72 412.224 2268.73 403.25 2262.84 393.562 2261.94 391.891 2262.56 389.806 2264.24 388.906 2265.84 388.045 2267.83 388.579 2268.79 390.125 2274.41 399.344 2281.08 407.886 2288.65 415.579 2289.96 416.955 2289.91 419.131 2288.53 420.439 2287.89 421.046 2287.05 421.385 2286.16 421.385Z"/><path d="M2123.15 458.844C2121.25 458.842 2119.71 457.302 2119.71 455.404 2119.71 454.37 2120.18 453.391 2120.98 452.739 2129.29 445.998 2142.73 431.426 2139.46 409.519 2139.08 407.014 2138.69 404.513 2138.29 402.015 2135.58 388.133 2134.45 373.987 2134.94 359.851L2134.97 359.356C2136.26 339.354 2145.49 320.695 2160.6 307.525 2177.01 294.224 2197.83 287.596 2218.92 288.963 2257.35 291.523 2288.93 323.021 2289.3 359.17 2289.4 369.342 2292.23 376.825 2297.69 381.407 2299.14 382.628 2299.33 384.797 2298.11 386.251 2296.89 387.705 2294.72 387.894 2293.27 386.674 2286.2 380.74 2282.55 371.511 2282.42 359.239 2282.08 326.583 2253.39 298.151 2218.46 295.82 2199.19 294.545 2180.15 300.567 2165.13 312.688 2151.39 324.661 2143 341.627 2141.83 359.813L2141.8 360.318C2141.34 373.943 2142.44 387.576 2145.09 400.949 2145.48 403.466 2145.88 405.982 2146.25 408.512 2150.04 433.791 2134.76 450.422 2125.31 458.084 2124.7 458.58 2123.93 458.848 2123.15 458.844Z"/><path d="M2290.54 313.035C2289.41 313.036 2288.36 312.486 2287.71 311.561 2271.21 288.284 2245.1 273.685 2216.63 271.82 2193.1 270.205 2169.83 277.646 2151.61 292.62 2150.1 293.769 2147.94 293.476 2146.79 291.965 2145.7 290.534 2145.9 288.506 2147.24 287.313 2166.82 271.221 2191.81 263.226 2217.09 264.969 2247.64 266.979 2275.66 282.654 2293.36 307.638 2294.44 309.198 2294.06 311.34 2292.5 312.422 2291.92 312.821 2291.24 313.035 2290.54 313.035Z"/><path d="M2100.09 435.582C2098.19 435.583 2096.65 434.045 2096.65 432.146 2096.65 430.872 2097.35 429.702 2098.48 429.106 2101.68 427.404 2104.62 425.237 2107.19 422.674 2109.99 419.753 2112.09 416.224 2113.31 412.362 2114.05 409.327 2114.31 406.195 2114.07 403.081 2111.28 388.291 2110.23 373.224 2110.95 358.19L2110.97 357.826C2111.68 347.095 2114.11 336.547 2118.17 326.589 2121.55 318.334 2126.03 310.573 2131.49 303.52 2132.66 302.02 2134.82 301.746 2136.32 302.909 2137.82 304.071 2138.09 306.23 2136.93 307.731 2131.85 314.291 2127.68 321.511 2124.53 329.192 2120.75 338.457 2118.49 348.271 2117.83 358.256L2117.81 358.63C2117.13 373.154 2118.16 387.709 2120.86 401.994 2121.27 406.145 2120.94 410.334 2119.89 414.369 2118.4 419.163 2115.83 423.552 2112.38 427.202 2109.25 430.402 2105.64 433.096 2101.69 435.187 2101.19 435.447 2100.64 435.583 2100.09 435.582Z"/><path d="M2097.87 325.242C2097.46 325.241 2097.05 325.167 2096.66 325.022 2094.88 324.354 2093.98 322.371 2094.65 320.594 2095.05 319.547 2095.45 318.505 2095.88 317.47 2116.12 268.219 2165.57 237.413 2218.7 240.954 2233.86 241.941 2248.72 245.668 2262.56 251.954 2264.29 252.744 2265.05 254.784 2264.26 256.51 2263.47 258.23 2261.44 258.991 2259.72 258.214 2246.64 252.264 2232.58 248.735 2218.24 247.795 2168.06 244.45 2121.36 273.541 2102.24 320.051 2101.84 321.031 2101.46 322.011 2101.09 322.997 2100.59 324.344 2099.3 325.239 2097.87 325.242Z"/><path d="M2131.49 246.936C2129.6 246.936 2128.06 245.398 2128.06 243.499 2128.06 242.341 2128.64 241.26 2129.61 240.624 2156.42 222.989 2188.29 214.667 2220.31 216.943 2222.2 217.072 2223.63 218.711 2223.51 220.604 2223.4 222.477 2221.8 223.913 2219.93 223.81 2219.9 223.809 2219.88 223.807 2219.85 223.805 2189.33 221.629 2158.94 229.561 2133.38 246.375 2132.82 246.741 2132.16 246.936 2131.49 246.936Z"/></g></g></g><path d="M914 1152C914 994.322 935.303 866.499 961.581 866.499L2160.92 866.499C2187.2 866.499 2208.5 738.675 2208.5 580.997 2208.5 738.675 2229.8 866.499 2256.08 866.499L3455.42 866.499C3481.7 866.499 3503 994.322 3503 1152" stroke="#000000" stroke-width="13.75" stroke-miterlimit="8" fill="none" fill-rule="evenodd"/><g><g><g><path d="M1219.88 1306.75 1422.69 1306.75C1424.75 1306.75 1426.13 1305.37 1426.13 1303.31 1426.13 1302.62 1426.13 1302.28 1425.78 1301.59L1377.66 1219.09C1376.97 1218.06 1375.94 1217.37 1374.56 1217.37L1374.56 1217.37C1373.19 1217.37 1372.16 1218.06 1371.47 1219.09L1349.81 1259.31 1298.25 1180.94C1297.91 1180.25 1296.53 1179.56 1295.5 1179.56L1295.5 1179.56C1294.47 1179.56 1293.09 1180.25 1292.75 1181.28L1251.84 1245.91C1251.5 1246.25 1251.16 1246.94 1250.81 1247.28L1216.78 1301.59C1215.75 1303.31 1216.09 1305.37 1217.81 1306.41 1218.5 1306.41 1219.19 1306.75 1219.88 1306.75ZM1374.56 1228.03 1416.84 1299.87 1376.28 1299.87 1353.94 1265.84 1374.56 1228.03C1374.56 1228.03 1374.56 1228.03 1374.56 1228.03 1374.56 1228.03 1374.56 1228.03 1374.56 1228.03ZM1330.22 1242.12 1309.25 1229.75C1307.88 1229.06 1306.16 1229.06 1305.13 1230.44L1295.5 1240.06 1287.59 1232.16C1286.56 1231.12 1285.19 1230.78 1283.81 1231.47L1263.53 1240.41 1295.5 1189.53C1295.5 1189.53 1295.5 1189.53 1295.5 1189.53L1330.22 1242.12ZM1257 1251.06 1284.5 1238.69 1293.09 1247.28C1294.47 1248.66 1296.53 1248.66 1297.91 1247.28L1308.22 1236.97 1338.47 1254.5C1338.47 1254.5 1338.47 1254.5 1338.47 1254.5L1368.03 1299.87 1226.06 1299.87 1257 1251.06Z"/><path d="M1250.81 1193.31C1256.66 1193.31 1261.13 1188.84 1261.13 1183 1261.13 1177.16 1256.66 1172.69 1250.81 1172.69 1244.97 1172.69 1240.5 1177.16 1240.5 1183 1240.5 1188.84 1244.97 1193.31 1250.81 1193.31ZM1250.81 1179.56C1252.88 1179.56 1254.25 1180.94 1254.25 1183 1254.25 1185.06 1252.88 1186.44 1250.81 1186.44 1248.75 1186.44 1247.38 1185.06 1247.38 1183 1247.38 1180.94 1248.75 1179.56 1250.81 1179.56Z"/><path d="M1453.63 1141.75 1192.38 1141.75 1192.38 1341.12 1453.63 1341.12 1453.63 1141.75ZM1446.75 1334.25 1199.25 1334.25 1199.25 1148.62 1446.75 1148.62 1446.75 1334.25Z"/></g></g></g><g><g><g><path d="M2104.25 1342.38 2307.06 1342.38C2309.12 1342.38 2310.5 1341 2310.5 1338.94 2310.5 1338.25 2310.5 1337.91 2310.16 1337.22L2262.03 1254.72C2261.34 1253.69 2260.31 1253 2258.94 1253L2258.94 1253C2257.56 1253 2256.53 1253.69 2255.84 1254.72L2234.19 1294.94 2182.62 1216.56C2182.28 1215.88 2180.91 1215.19 2179.87 1215.19L2179.87 1215.19C2178.84 1215.19 2177.47 1215.88 2177.12 1216.91L2136.22 1281.53C2135.87 1281.88 2135.53 1282.56 2135.19 1282.91L2101.16 1337.22C2100.12 1338.94 2100.47 1341 2102.19 1342.03 2102.87 1342.03 2103.56 1342.38 2104.25 1342.38ZM2258.94 1263.66 2301.22 1335.5 2260.66 1335.5 2238.31 1301.47 2258.94 1263.66C2258.94 1263.66 2258.94 1263.66 2258.94 1263.66 2258.94 1263.66 2258.94 1263.66 2258.94 1263.66ZM2214.59 1277.75 2193.62 1265.38C2192.25 1264.69 2190.53 1264.69 2189.5 1266.06L2179.87 1275.69 2171.97 1267.78C2170.94 1266.75 2169.56 1266.41 2168.19 1267.09L2147.91 1276.03 2179.87 1225.16C2179.87 1225.16 2179.87 1225.16 2179.87 1225.16 2179.87 1225.16 2214.59 1277.75 2214.59 1277.75ZM2141.37 1286.69 2168.87 1274.31 2177.47 1282.91C2178.84 1284.28 2180.91 1284.28 2182.28 1282.91L2192.59 1272.59 2222.84 1290.12C2222.84 1290.12 2222.84 1290.12 2222.84 1290.12L2252.41 1335.5 2110.44 1335.5 2141.37 1286.69Z"/><path d="M2135.19 1228.94C2141.03 1228.94 2145.5 1224.47 2145.5 1218.62 2145.5 1212.78 2141.03 1208.31 2135.19 1208.31 2129.34 1208.31 2124.87 1212.78 2124.87 1218.62 2124.87 1224.47 2129.34 1228.94 2135.19 1228.94ZM2135.19 1215.19C2137.25 1215.19 2138.62 1216.56 2138.62 1218.62 2138.62 1220.69 2137.25 1222.06 2135.19 1222.06 2133.12 1222.06 2131.75 1220.69 2131.75 1218.62 2131.75 1216.56 2133.12 1215.19 2135.19 1215.19Z"/><path d="M2114.56 1139.56 2114.56 1177.38 2076.75 1177.38 2076.75 1376.75 2338 1376.75 2338 1338.94 2375.81 1338.94 2375.81 1139.56 2114.56 1139.56ZM2331.12 1369.88 2083.62 1369.88 2083.62 1184.25 2331.12 1184.25 2331.12 1369.88ZM2368.94 1332.06 2338 1332.06 2338 1177.38 2121.44 1177.38 2121.44 1146.44 2368.94 1146.44 2368.94 1332.06Z"/></g></g></g><g><g><g><path d="M2920.25 1342.38 3123.06 1342.38C3125.12 1342.38 3126.5 1341 3126.5 1338.94 3126.5 1338.25 3126.5 1337.91 3126.16 1337.22L3078.03 1254.72C3077.34 1253.69 3076.31 1253 3074.94 1253L3074.94 1253C3073.56 1253 3072.53 1253.69 3071.84 1254.72L3050.19 1294.94 2998.62 1216.56C2998.28 1215.88 2996.91 1215.19 2995.88 1215.19L2995.88 1215.19C2994.84 1215.19 2993.47 1215.88 2993.12 1216.91L2952.22 1281.53C2951.88 1281.88 2951.53 1282.56 2951.19 1282.91L2917.16 1337.22C2916.12 1338.94 2916.47 1341 2918.19 1342.03 2918.88 1342.03 2919.56 1342.38 2920.25 1342.38ZM3074.94 1263.66 3117.22 1335.5 3076.66 1335.5 3054.31 1301.47 3074.94 1263.66C3074.94 1263.66 3074.94 1263.66 3074.94 1263.66 3074.94 1263.66 3074.94 1263.66 3074.94 1263.66ZM3030.59 1277.75 3009.62 1265.38C3008.25 1264.69 3006.53 1264.69 3005.5 1266.06L2995.88 1275.69 2987.97 1267.78C2986.94 1266.75 2985.56 1266.41 2984.19 1267.09L2963.91 1276.03 2995.88 1225.16C2995.88 1225.16 2995.88 1225.16 2995.88 1225.16 2995.88 1225.16 3030.59 1277.75 3030.59 1277.75ZM2957.38 1286.69 2984.88 1274.31 2993.47 1282.91C2994.84 1284.28 2996.91 1284.28 2998.28 1282.91L3008.59 1272.59 3038.84 1290.12C3038.84 1290.12 3038.84 1290.12 3038.84 1290.12L3068.41 1335.5 2926.44 1335.5 2957.38 1286.69Z"/><path d="M2951.19 1228.94C2957.03 1228.94 2961.5 1224.47 2961.5 1218.62 2961.5 1212.78 2957.03 1208.31 2951.19 1208.31 2945.34 1208.31 2940.88 1212.78 2940.88 1218.62 2940.88 1224.47 2945.34 1228.94 2951.19 1228.94ZM2951.19 1215.19C2953.25 1215.19 2954.62 1216.56 2954.62 1218.62 2954.62 1220.69 2953.25 1222.06 2951.19 1222.06 2949.12 1222.06 2947.75 1220.69 2947.75 1218.62 2947.75 1216.56 2949.12 1215.19 2951.19 1215.19Z"/><path d="M2930.56 1139.56 2930.56 1177.38 2892.75 1177.38 2892.75 1376.75 3154 1376.75 3154 1338.94 3191.81 1338.94 3191.81 1139.56 2930.56 1139.56ZM3147.12 1369.88 2899.62 1369.88 2899.62 1184.25 3147.12 1184.25 3147.12 1369.88ZM3184.94 1332.06 3154 1332.06 3154 1177.38 2937.44 1177.38 2937.44 1146.44 3184.94 1146.44 3184.94 1332.06Z"/></g></g></g><text font-family="Aptos,Aptos_MSFontService,sans-serif" font-weight="400" font-size="83" transform="matrix(1 0 0 1 1150.51 1058)">Occasion 1</text><text font-family="Aptos,Aptos_MSFontService,sans-serif" font-weight="400" font-size="83" transform="matrix(1 0 0 1 2007.74 1047)">Occasion 2</text><text font-family="Aptos,Aptos_MSFontService,sans-serif" font-weight="400" font-size="83" transform="matrix(1 0 0 1 2864.97 1047)">Occasion 3</text></g></svg>