<svg width="5806" height="3385" xmlns="http://www.w3.org/2000/svg" xmlns:xlink="http://www.w3.org/1999/xlink" xml:space="preserve" overflow="hidden"><g transform="translate(-223 -417)"><path d="M884.943 1705.71 1160.54 1703.73 1162.52 1979.33 886.921 1981.31Z" stroke="#4EA72E" stroke-width="20.625" stroke-miterlimit="8" fill="none" fill-rule="evenodd"/><path d="M387.5 1475.5 484.75 1086.5 776.5 1086.5 679.25 1475.5Z" stroke="#747474" stroke-width="20.625" stroke-miterlimit="8" fill="none" fill-rule="evenodd"/><path d="M387.5 1645.5 776.5 1567.5 776.5 1957.5 387.5 1957.5Z" stroke="#3B7D23" stroke-width="20.625" stroke-miterlimit="8" fill="none" fill-rule="evenodd"/><path d="M823.501 1370.47 1018.5 1221.5 1213.5 1370.47 1139.02 1611.5 897.984 1611.5Z" stroke="#D86ECC" stroke-width="20.625" stroke-miterlimit="8" fill="none" fill-rule="evenodd"/><path d="M1603.5 1449.5 1213.5 1254.5 1603.5 1059.5Z" stroke="#C00000" stroke-width="20.625" stroke-miterlimit="8" fill="none" fill-rule="evenodd"/><path d="M1299.5 1945.5 1397 1555.5 1592 1555.5 1689.5 1945.5Z" stroke="#042433" stroke-width="20.625" stroke-miterlimit="8" fill="none" fill-rule="evenodd"/><rect x="226.5" y="899.5" width="1624" height="1299" stroke="#156082" stroke-width="6.875" stroke-miterlimit="8" fill="none"/><path d="M3211.5 1889.5 3016.5 2278.5 2821.5 1889.5Z" stroke="#156082" stroke-width="20.625" stroke-miterlimit="8" fill="none" fill-rule="evenodd"/><path d="M3716.55 2215.23 3378.21 2431.88 3236.45 2298.15 3433.03 1947.77Z" stroke="#156082" stroke-width="20.625" stroke-miterlimit="8" fill="none" fill-rule="evenodd"/><path d="M3578.18 2776.64 3432.41 2542.75 3666.31 2396.97 3812.08 2630.87Z" stroke="#00B0F0" stroke-width="20.625" stroke-miterlimit="8" fill="none" fill-rule="evenodd"/><path d="M3146.5 2431.5 3146.5 2431.5 3341.5 2626.5 3341.5 2821.5 3341.5 2821.5 2951.5 2821.5 2951.5 2821.5 2951.5 2626.5Z" stroke="#C00000" stroke-width="20.625" stroke-miterlimit="8" fill="none" fill-rule="evenodd"/><path d="M2487.33 2261.17 2625.15 1896.59 2851.91 2398.99Z" stroke="#8ED973" stroke-width="20.625" stroke-miterlimit="8" fill="none" fill-rule="evenodd"/><path d="M2626.73 2820.71 2491.99 2406.29 2904.36 2547.15Z" stroke="#8ED973" stroke-width="20.625" stroke-miterlimit="8" fill="none" fill-rule="evenodd"/><rect x="2313.5" y="1705.5" width="1625" height="1299" stroke="#156082" stroke-width="6.875" stroke-miterlimit="8" fill="none"/><rect x="4401.5" y="2499.5" width="1624" height="1299" stroke="#156082" stroke-width="6.875" stroke-miterlimit="8" fill="none"/><path d="M4832.73 2683.14 4968.38 3061.31 4806.38 3169.63 4508.73 2899.79Z" stroke="#156082" stroke-width="20.625" stroke-miterlimit="8" fill="none" fill-rule="evenodd"/><path d="M5062.5 3683.5 5159.75 3294.5 5355.25 3294.5 5452.5 3683.5Z" stroke="#042433" stroke-width="20.625" stroke-miterlimit="8" fill="none" fill-rule="evenodd"/><path d="M5040.5 2844.47 5235.5 2695.5 5430.5 2844.47 5356.02 3085.5 5114.98 3085.5Z" stroke="#D86ECC" stroke-width="20.625" stroke-miterlimit="8" fill="none" fill-rule="evenodd"/><path d="M5924.97 2992.84 5518.5 3149.93 5636.71 2730.5Z" stroke="#156082" stroke-width="20.625" stroke-miterlimit="8" fill="none" fill-rule="evenodd"/><path d="M5594.63 3586.57 5533.84 3317.75 5802.66 3256.97 5863.45 3525.78Z" stroke="#00B0F0" stroke-width="20.625" stroke-miterlimit="8" fill="none" fill-rule="evenodd"/><path d="M4624.5 3683.5 4721.75 3294.5 5013.5 3294.5 4916.25 3683.5Z" stroke="#747474" stroke-width="20.625" stroke-miterlimit="8" fill="none" fill-rule="evenodd"/><text fill="#156082" font-family="Aptos,Aptos_MSFontService,sans-serif" font-weight="400" font-size="128" transform="matrix(1 0 0 1 699.993 577)">Occasion 1</text><text fill="#156082" font-family="Aptos,Aptos_MSFontService,sans-serif" font-weight="400" font-size="128" transform="matrix(1 0 0 1 2807.54 1331)">Occasion 2</text><text fill="#156082" font-family="Aptos,Aptos_MSFontService,sans-serif" font-weight="400" font-size="128" transform="matrix(1 0 0 1 4916.98 2149)">Occasion 3</text><path d="M0-13.75 170.466-13.75 170.466 1206.93 142.966 1206.93 142.966 0 156.716 13.75 0 13.75ZM197.966 1193.18 156.716 1275.68 115.466 1193.18Z" fill="#156082" transform="matrix(-1.83697e-16 -1 -1 1.83697e-16 3125.68 1704.72)"/><path d="M4401.36 3162.11 1024.25 3162.11 1024.25 2266.75 1051.75 2266.75 1051.75 3148.36 1038 3134.61 4401.36 3134.61ZM996.75 2280.5 1038 2198 1079.25 2280.5Z" fill="#156082"/><path d="M4401.68 3161.78 3112.25 3161.78 3112.25 3072.75 3139.75 3072.75 3139.75 3148.03 3126 3134.28 4401.68 3134.28ZM3084.75 3086.5 3126 3004 3167.25 3086.5Z" fill="#156082"/><g><g><g><path d="M259.05 108.35C246.4 108.35 235.95 118.8 235.95 131.45 235.95 144.1 246.4 154.55 259.05 154.55 271.7 154.55 282.15 144.1 282.15 131.45 282.15 118.8 271.7 108.35 259.05 108.35Z" stroke="#156082" stroke-width="5.5" fill="#156082" transform="matrix(-1 0 0 1 5958 417)"/><path d="M212.85 243.1C212.85 255.858 202.508 266.2 189.75 266.2 176.992 266.2 166.65 255.858 166.65 243.1 166.65 230.342 176.992 220 189.75 220 202.508 220 212.85 230.342 212.85 243.1Z" stroke="#156082" stroke-width="5.5" fill="#156082" transform="matrix(-1 0 0 1 5958 417)"/><path d="M324.5 139.15 310.75 145.75C309.65 150.15 307.45 154 305.25 157.85L310.2 172.15 299.2 183.15 284.9 178.2C281.05 180.4 277.2 182.05 272.8 183.15L266.2 196.35 250.8 196.35 244.2 182.6C239.8 181.5 235.95 179.85 232.1 177.65L217.8 182.6 206.8 171.6 211.75 157.3C209.55 153.45 207.9 149.6 206.8 145.2L193.05 138.6 193.05 123.2 206.8 116.6C207.9 112.2 209.55 108.35 211.75 104.5L207.35 90.2 218.35 79.2 232.65 84.15C236.5 81.95 240.35 80.3 244.75 79.2L251.35 65.45 266.75 65.45 273.35 78.65C277.75 79.75 281.6 81.4 285.45 83.6L299.75 78.65 310.75 89.65 305.8 103.95C308 107.8 309.65 111.65 310.75 116.05L324.5 122.65 324.5 139.15ZM255.2 250.8 241.45 257.4C240.35 261.8 238.7 265.65 236.5 269.5L240.9 283.8 229.9 294.8 215.6 289.85C211.75 292.05 207.9 293.7 203.5 294.8L197.45 308 182.05 308 175.45 294.25C171.05 293.15 167.2 291.5 163.35 289.3L149.05 293.7 138.05 282.7 143 268.4C140.8 264.55 139.15 260.7 138.05 256.3L124.3 249.7 124.3 234.3 138.05 227.7C139.15 223.3 140.8 219.45 143 215.6L138.05 201.3 149.05 190.3 163.35 195.25C167.2 193.05 171.05 191.4 175.45 190.3L182.05 176.55 198 176.55 204.6 190.3C209 191.4 212.85 193.05 216.7 195.25L231 190.3 242 201.3 237.05 215.6C239.25 219.45 240.9 223.3 242 227.7L255.75 234.3 255.2 250.8 255.2 250.8ZM445.5 271.15 407.55 205.15 407.55 202.4C409.75 141.9 378.95 85.25 326.7 53.9 274.45 23.1 210.1 23.1 157.85 53.9 105.6 84.7 74.8 141.9 77 202.4 77 254.65 100.65 303.6 141.9 335.5L141.9 474.65 315.7 474.65 315.7 408.65 342.65 408.65C360.25 408.65 376.75 401.5 388.85 389.4 400.95 376.75 407.55 360.25 407.55 342.65L407.55 309.65 431.75 309.65C446.05 308 458.7 291.5 445.5 271.15Z" stroke="#156082" stroke-width="5.5" fill="#156082" transform="matrix(-1 0 0 1 5958 417)"/></g></g></g><path d="M7.27021e-06-10.3125 460.349-10.3122 460.349 10.3128-7.27021e-06 10.3125ZM450.036-30.9372 511.911 0.000360892 450.036 30.9378Z" fill="#156082" transform="matrix(-1 0 0 1 5430.41 669.5)"/></g></svg>