<svg width="1644" height="2111" xmlns="http://www.w3.org/2000/svg" xmlns:xlink="http://www.w3.org/1999/xlink" xml:space="preserve" overflow="hidden"><g transform="translate(-443 -167)"><path d="M1682.5 177.5 1487.5 567.5 1292.5 177.5Z" stroke="#156082" stroke-width="20.625" stroke-miterlimit="8" fill="none" fill-rule="evenodd"/><path d="M1877 1432.5 1682.5 1238 1877 1043.5 2071.5 1238Z" stroke="#00B0F0" stroke-width="20.625" stroke-miterlimit="8" fill="none" fill-rule="evenodd"/><path d="M1401.5 2267.5 1596 1877.5 1790.5 2267.5Z" stroke="#8ED973" stroke-width="20.625" stroke-miterlimit="8" fill="none" fill-rule="evenodd"/><path d="M460.5 1432.5 655.5 1043.5 850.5 1432.5Z" stroke="#156082" stroke-width="20.625" stroke-miterlimit="8" fill="none" fill-rule="evenodd"/><path d="M29.3761 8.20217 90.3017 63.8288 71.7594 84.1374 10.8339 28.5107ZM110.61 82.3711 171.536 137.998 152.994 158.306 92.068 102.68ZM191.844 156.54 252.77 212.167 234.228 232.475 173.302 176.848ZM273.078 230.709 334.004 286.336 315.462 306.644 254.536 251.017ZM354.312 304.878 415.238 360.504 396.696 380.813 335.77 325.186ZM435.547 379.047 496.472 434.673 477.93 454.982 417.004 399.355ZM516.781 453.216 577.706 508.842 559.164 529.151 498.238 473.524ZM598.015 527.384 658.94 583.011 640.398 603.32 579.472 547.693ZM679.249 601.553 723.423 641.886 704.881 662.194 660.707 621.862ZM35.4574 113.623-0.0470626-0.0429702 116.372 25.0012C123.796 26.5982 128.519 33.9113 126.922 41.3354 125.325 48.7595 118.012 53.4832 110.588 51.8861L17.2137 31.7993 33.2301 14.2572 61.7066 105.424C63.9708 112.672 59.9301 120.384 52.6816 122.648 45.4331 124.912 37.7215 120.872 35.4574 113.623ZM698.799 556.773 734.304 670.439 617.885 645.395C610.461 643.798 605.737 636.485 607.334 629.061 608.932 621.637 616.245 616.913 623.669 618.51L717.043 638.597 701.027 656.139 672.55 564.972C670.286 557.724 674.327 550.012 681.575 547.748 688.824 545.484 696.535 549.525 698.799 556.773Z" transform="matrix(1 0 0 -1 655 1042.4)"/><path d="M762.575 1233.92 790.075 1233.92 790.075 1243.08 762.575 1243.08ZM799.242 1233.92 826.741 1233.92 826.741 1243.08 799.241 1243.08ZM835.908 1233.92 863.408 1233.92 863.408 1243.08 835.908 1243.08ZM872.575 1233.92 900.075 1233.92 900.075 1243.08 872.575 1243.08ZM909.241 1233.92 936.741 1233.92 936.741 1243.08 909.241 1243.08ZM945.908 1233.92 973.408 1233.92 973.408 1243.08 945.908 1243.08ZM982.575 1233.92 1010.07 1233.92 1010.07 1243.08 982.575 1243.08ZM1019.24 1233.92 1046.74 1233.92 1046.74 1243.08 1019.24 1243.08ZM1055.91 1233.92 1083.41 1233.92 1083.41 1243.08 1055.91 1243.08ZM1092.57 1233.92 1120.07 1233.92 1120.07 1243.08 1092.57 1243.08ZM1129.24 1233.92 1156.74 1233.92 1156.74 1243.08 1129.24 1243.08ZM1165.91 1233.92 1193.41 1233.92 1193.41 1243.08 1165.91 1243.08ZM1202.57 1233.92 1230.07 1233.92 1230.07 1243.08 1202.57 1243.08ZM1239.24 1233.92 1266.74 1233.92 1266.74 1243.08 1239.24 1243.08ZM1275.91 1233.92 1303.41 1233.92 1303.41 1243.08 1275.91 1243.08ZM1312.57 1233.92 1340.07 1233.92 1340.07 1243.08 1312.57 1243.08ZM1349.24 1233.92 1376.74 1233.92 1376.74 1243.08 1349.24 1243.08ZM1385.91 1233.92 1413.41 1233.92 1413.41 1243.08 1385.91 1243.08ZM1422.57 1233.92 1450.07 1233.92 1450.07 1243.08 1422.57 1243.08ZM1459.24 1233.92 1486.74 1233.92 1486.74 1243.08 1459.24 1243.08ZM1495.91 1233.92 1523.41 1233.92 1523.41 1243.08 1495.91 1243.08ZM1532.57 1233.92 1560.07 1233.92 1560.07 1243.08 1532.57 1243.08ZM1569.24 1233.92 1596.74 1233.92 1596.74 1243.08 1569.24 1243.08ZM1605.91 1233.92 1633.41 1233.92 1633.41 1243.08 1605.91 1243.08ZM1642.57 1233.92 1670.07 1233.92 1670.07 1243.08 1642.57 1243.08ZM787.766 1258.5 753.479 1238.5 787.766 1218.5C789.952 1217.22 792.759 1217.96 794.034 1220.15 795.309 1222.34 794.571 1225.14 792.384 1226.42L764.884 1242.46 764.884 1234.54 792.384 1250.58C794.571 1251.86 795.309 1254.66 794.034 1256.85 792.759 1259.04 789.952 1259.78 787.766 1258.5ZM1648.37 1218.5 1682.66 1238.5 1648.37 1258.5C1646.19 1259.78 1643.38 1259.04 1642.1 1256.85 1640.83 1254.66 1641.57 1251.86 1643.75 1250.58L1671.25 1234.54 1671.25 1242.46 1643.75 1226.42C1641.57 1225.14 1640.83 1222.34 1642.1 1220.15 1643.38 1217.96 1646.19 1217.22 1648.37 1218.5Z"/><path d="M675.003 1435.66 718.828 1468.9 707.75 1483.51 663.926 1450.27ZM733.436 1479.97 777.261 1513.21 766.183 1527.82 722.359 1494.58ZM791.869 1524.28 835.694 1557.52 824.616 1572.13 780.792 1538.89ZM850.302 1568.59 894.127 1601.83 883.049 1616.44 839.224 1583.2ZM908.735 1612.9 952.56 1646.14 941.482 1660.75 897.657 1627.51ZM967.168 1657.21 1010.99 1690.45 999.915 1705.06 956.09 1671.82ZM1025.6 1701.52 1069.43 1734.76 1058.35 1749.37 1014.52 1716.13ZM1084.03 1745.83 1127.86 1779.07 1116.78 1793.68 1072.96 1760.44ZM1142.47 1790.14 1186.29 1823.38 1175.21 1837.99 1131.39 1804.75ZM1200.9 1834.45 1244.72 1867.69 1233.65 1882.3 1189.82 1849.06ZM1259.33 1878.76 1303.16 1912 1292.08 1926.61 1248.25 1893.37ZM1317.77 1923.07 1361.59 1956.31 1350.51 1970.92 1306.69 1937.68ZM1376.2 1967.38 1420.02 2000.62 1408.95 2015.23 1365.12 1981.99ZM1434.63 2011.69 1478.46 2044.93 1467.38 2059.54 1423.55 2026.3ZM685.436 1505.28 654.966 1431.97 733.776 1441.53C738.802 1442.14 742.382 1446.71 741.772 1451.74 741.163 1456.76 736.594 1460.34 731.568 1459.73L668.358 1452.07 677.927 1439.45 702.366 1498.25C704.309 1502.92 702.094 1508.29 697.419 1510.23 692.745 1512.17 687.38 1509.96 685.436 1505.28ZM1467.62 1998.01 1498.09 2071.32 1419.28 2061.76C1414.25 2061.15 1410.67 2056.58 1411.28 2051.56 1411.89 2046.53 1416.46 2042.95 1421.49 2043.56L1484.7 2051.23 1475.13 2063.85 1450.69 2005.05C1448.75 2000.37 1450.96 1995.01 1455.64 1993.07 1460.31 1991.12 1465.68 1993.34 1467.62 1998.01Z"/></g></svg>