<svg width="4249" height="2895" xmlns="http://www.w3.org/2000/svg" xmlns:xlink="http://www.w3.org/1999/xlink" xml:space="preserve" overflow="hidden"><g transform="translate(-1733 -1394)"><path d="M1798.5 3831.5 1993.5 3441.5 2188.5 3831.5Z" stroke="#156082" stroke-width="20.625" stroke-miterlimit="8" fill="none" fill-rule="evenodd"/><path d="M2951.5 3831.5 3146.5 3441.5 3341.5 3831.5Z" stroke="#156082" stroke-width="20.625" stroke-miterlimit="8" fill="none" fill-rule="evenodd"/><path d="M4466.5 3831.5 4563.75 3441.5 4758.25 3441.5 4855.5 3831.5Z" stroke="#156082" stroke-width="20.625" stroke-miterlimit="8" fill="none" fill-rule="evenodd"/><path d="M5475.5 3636.5 5670.5 3441.5 5865.5 3636.5 5670.5 3831.5Z" stroke="#00B0F0" stroke-width="20.625" stroke-miterlimit="8" fill="none" fill-rule="evenodd"/><path d="M5166 3441.5 5166 3441.5 5360.5 3636 5360.5 3831.5 5360.5 3831.5 4971.5 3831.5 4971.5 3831.5 4971.5 3636Z" stroke="#C00000" stroke-width="20.625" stroke-miterlimit="8" fill="none" fill-rule="evenodd"/><path d="M3961.5 3831.5 3961.5 3441.5 4351.5 3831.5Z" stroke="#8ED973" stroke-width="20.625" stroke-miterlimit="8" fill="none" fill-rule="evenodd"/><path d="M3456.5 3831.5 3651.5 3441.5 3846.5 3831.5Z" stroke="#8ED973" stroke-width="20.625" stroke-miterlimit="8" fill="none" fill-rule="evenodd"/><rect x="2727.5" y="2986.5" width="3248" height="1299" stroke="#042433" stroke-width="6.875" stroke-miterlimit="8" fill="none"/><path d="M3624.5 1613.5 3429.5 2002.5 3234.5 1613.5Z" stroke="#156082" stroke-width="20.625" stroke-miterlimit="8" fill="none" fill-rule="evenodd"/><path d="M4129.63 1939.14 3791.29 2155.79 3649.53 2022.06 3846.12 1671.68Z" stroke="#156082" stroke-width="20.625" stroke-miterlimit="8" stroke-opacity="0.101961" fill="none" fill-rule="evenodd"/><path d="M3991.27 2500.56 3845.5 2266.66 4079.4 2120.89 4225.17 2354.78Z" stroke="#00B0F0" stroke-width="20.625" stroke-miterlimit="8" stroke-opacity="0.101961" fill="none" fill-rule="evenodd"/><path d="M3560 2155.5 3560 2155.5 3754.5 2350 3754.5 2545.5 3754.5 2545.5 3365.5 2545.5 3365.5 2545.5 3365.5 2350Z" stroke="#C00000" stroke-width="20.625" stroke-miterlimit="8" stroke-opacity="0.101961" fill="none" fill-rule="evenodd"/><path d="M2900.42 1985.08 3038.24 1620.5 3265 2122.9Z" stroke="#8ED973" stroke-width="20.625" stroke-miterlimit="8" stroke-opacity="0.101961" fill="none" fill-rule="evenodd"/><path d="M3039.82 2544.62 2905.07 2130.2 3317.45 2271.06Z" stroke="#8ED973" stroke-width="20.625" stroke-miterlimit="8" stroke-opacity="0.101961" fill="none" fill-rule="evenodd"/><rect x="2727.5" y="1429.5" width="1624" height="1299" stroke="#042433" stroke-width="6.875" stroke-miterlimit="8" fill="none"/><path d="M1799.5 2274.5 1994.5 1884.5 2189.5 2274.5Z" stroke="#156082" stroke-width="20.625" stroke-miterlimit="8" fill="none" fill-rule="evenodd"/><text fill="#156082" font-family="Aptos,Aptos_MSFontService,sans-serif" font-weight="400" font-size="147" transform="matrix(1 0 0 1 1821.2 3138)">B</text><text fill="#156082" font-family="Aptos,Aptos_MSFontService,sans-serif" font-weight="400" font-size="147" transform="matrix(1 0 0 1 1821.2 1573)">A</text><path d="M1788 2869 5974.41 2869" stroke="#156082" stroke-width="13.75" stroke-miterlimit="8" stroke-opacity="0.501961" fill="none" fill-rule="evenodd"/></g></svg>