<svg width="4198" height="1306" xmlns="http://www.w3.org/2000/svg" xmlns:xlink="http://www.w3.org/1999/xlink" xml:space="preserve" overflow="hidden"><g transform="translate(-65 -585)"><path d="M82.5 1432.5 277.5 1043.5 472.5 1432.5Z" stroke="#156082" stroke-width="20.625" stroke-miterlimit="8" fill="none" fill-rule="evenodd"/><path d="M1235.5 1432.5 1430.5 1043.5 1625.5 1432.5Z" stroke="#156082" stroke-width="20.625" stroke-miterlimit="8" fill="none" fill-rule="evenodd"/><path d="M2750.5 1432.5 2847.75 1043.5 3043.25 1043.5 3140.5 1432.5Z" stroke="#156082" stroke-width="20.625" stroke-miterlimit="8" fill="none" fill-rule="evenodd"/><path d="M3760.5 1238 3955 1043.5 4149.5 1238 3955 1432.5Z" stroke="#00B0F0" stroke-width="20.625" stroke-miterlimit="8" fill="none" fill-rule="evenodd"/><path d="M3450 1043.5 3451 1043.5 3645.5 1238 3645.5 1432.5 3645.5 1432.5 3255.5 1432.5 3255.5 1432.5 3255.5 1238Z" stroke="#C00000" stroke-width="20.625" stroke-miterlimit="8" fill="none" fill-rule="evenodd"/><path d="M2245.5 1432.5 2245.5 1043.5 2635.5 1432.5Z" stroke="#8ED973" stroke-width="20.625" stroke-miterlimit="8" fill="none" fill-rule="evenodd"/><path d="M1740.5 1432.5 1935.5 1043.5 2130.5 1432.5Z" stroke="#8ED973" stroke-width="20.625" stroke-miterlimit="8" fill="none" fill-rule="evenodd"/><rect x="1011.5" y="588.5" width="3248" height="1299" stroke="#042433" stroke-width="6.875" stroke-miterlimit="8" fill="none"/></g></svg>