<svg width="4250" height="2896" xmlns="http://www.w3.org/2000/svg" xmlns:xlink="http://www.w3.org/1999/xlink" xml:space="preserve" overflow="hidden"><g transform="translate(-184 -398)"><path d="M249.5 2835.5 444.5 2445.5 639.5 2835.5Z" stroke="#156082" stroke-width="20.625" stroke-miterlimit="8" fill="none" fill-rule="evenodd"/><path d="M1402.5 2835.5 1597.5 2445.5 1792.5 2835.5Z" stroke="#156082" stroke-width="20.625" stroke-miterlimit="8" fill="none" fill-rule="evenodd"/><path d="M2917.5 2835.5 3015 2445.5 3210 2445.5 3307.5 2835.5Z" stroke="#156082" stroke-width="20.625" stroke-miterlimit="8" fill="none" fill-rule="evenodd"/><path d="M3927.5 2640.5 4122.5 2445.5 4317.5 2640.5 4122.5 2835.5Z" stroke="#00B0F0" stroke-width="20.625" stroke-miterlimit="8" fill="none" fill-rule="evenodd"/><path d="M3617.5 2445.5 3617.5 2445.5 3812.5 2640.5 3812.5 2835.5 3812.5 2835.5 3422.5 2835.5 3422.5 2835.5 3422.5 2640.5Z" stroke="#C00000" stroke-width="20.625" stroke-miterlimit="8" fill="none" fill-rule="evenodd"/><path d="M2412.5 2835.5 2412.5 2445.5 2802.5 2835.5Z" stroke="#8ED973" stroke-width="20.625" stroke-miterlimit="8" fill="none" fill-rule="evenodd"/><path d="M1907.5 2835.5 2102.5 2445.5 2297.5 2835.5Z" stroke="#8ED973" stroke-width="20.625" stroke-miterlimit="8" fill="none" fill-rule="evenodd"/><rect x="1178.5" y="1990.5" width="3248" height="1300" stroke="#042433" stroke-width="6.875" stroke-miterlimit="8" fill="none"/><path d="M2075.5 617.5 1881 1007.5 1686.5 617.5Z" stroke="#156082" stroke-width="20.625" stroke-miterlimit="8" fill="none" fill-rule="evenodd"/><path d="M2581.04 943.414 2242.7 1160.06 2100.94 1026.33 2297.52 675.952Z" stroke="#156082" stroke-width="20.625" stroke-miterlimit="8" stroke-opacity="0.101961" fill="none" fill-rule="evenodd"/><path d="M2442.68 1504.83 2296.9 1270.93 2530.8 1125.16 2676.58 1359.05Z" stroke="#00B0F0" stroke-width="20.625" stroke-miterlimit="8" stroke-opacity="0.101961" fill="none" fill-rule="evenodd"/><path d="M2011.5 1159.5 2011.5 1159.5 2206.5 1354.5 2206.5 1549.5 2206.5 1549.5 1816.5 1549.5 1816.5 1549.5 1816.5 1354.5Z" stroke="#C00000" stroke-width="20.625" stroke-miterlimit="8" stroke-opacity="0.101961" fill="none" fill-rule="evenodd"/><path d="M1351.82 989.352 1489.64 624.768 1716.4 1127.17Z" stroke="#8ED973" stroke-width="20.625" stroke-miterlimit="8" stroke-opacity="0.101961" fill="none" fill-rule="evenodd"/><path d="M1491.22 1548.89 1356.48 1134.47 1768.86 1275.33Z" stroke="#8ED973" stroke-width="20.625" stroke-miterlimit="8" stroke-opacity="0.101961" fill="none" fill-rule="evenodd"/><rect x="1178.5" y="433.5" width="1624" height="1300" stroke="#042433" stroke-width="6.875" stroke-miterlimit="8" fill="none"/><path d="M250.5 1278.5 445.5 888.5 640.5 1278.5Z" stroke="#156082" stroke-width="20.625" stroke-miterlimit="8" fill="none" fill-rule="evenodd"/><text font-family="Aptos,Aptos_MSFontService,sans-serif" font-weight="400" font-size="147" transform="matrix(1 0 0 1 272.609 2142)">B</text><text font-family="Aptos,Aptos_MSFontService,sans-serif" font-weight="400" font-size="147" transform="matrix(1 0 0 1 272.609 578)">A</text><path d="M240 1873 4426.41 1873" stroke="#156082" stroke-width="13.75" stroke-miterlimit="8" stroke-opacity="0.501961" fill="none" fill-rule="evenodd"/></g></svg>